<svg xmlns="http://www.w3.org/2000/svg" xmlns:xlink="http://www.w3.org/1999/xlink" zoomAndPan="magnify" preserveAspectRatio="xMidYMid meet" version="1.0" viewBox="74.16 74.19 226.31 226.31"><defs><clipPath id="b9b9b21a28"><path d="M 83 79 L 291 79 L 291 298 L 83 298 Z M 83 79 " clip-rule="nonzero"/></clipPath><clipPath id="c388380928"><path d="M 74.164062 92.015625 L 282.65625 74.191406 L 300.476562 282.683594 L 91.988281 300.503906 Z M 74.164062 92.015625 " clip-rule="nonzero"/></clipPath><clipPath id="7fd7188d51"><path d="M 74.164062 92.015625 L 282.65625 74.191406 L 300.476562 282.683594 L 91.988281 300.503906 Z M 74.164062 92.015625 " clip-rule="nonzero"/></clipPath><clipPath id="bbd5660e6d"><path d="M 105 101 L 271 101 L 271 276 L 105 276 Z M 105 101 " clip-rule="nonzero"/></clipPath><clipPath id="95225eddee"><path d="M 97.992188 111.164062 L 264.632812 96.917969 L 278.878906 263.5625 L 112.234375 277.804688 Z M 97.992188 111.164062 " clip-rule="nonzero"/></clipPath><clipPath id="47b30f4028"><path d="M 97.992188 111.164062 L 264.632812 96.917969 L 278.878906 263.5625 L 112.234375 277.804688 Z M 97.992188 111.164062 " clip-rule="nonzero"/></clipPath><clipPath id="d889d93224"><path d="M 155 202 L 223 202 L 223 238 L 155 238 Z M 155 202 " clip-rule="nonzero"/></clipPath><clipPath id="0cf442933b"><path d="M 154.550781 207.566406 L 223.300781 201.691406 L 226.113281 234.570312 L 157.363281 240.445312 Z M 154.550781 207.566406 " clip-rule="nonzero"/></clipPath><clipPath id="0061dffe3e"><path d="M 154.550781 207.566406 L 223.300781 201.691406 L 226.113281 234.570312 L 157.363281 240.445312 Z M 154.550781 207.566406 " clip-rule="nonzero"/></clipPath></defs><g clip-path="url(#b9b9b21a28)"><g clip-path="url(#c388380928)"><g clip-path="url(#7fd7188d51)"><path fill="#242424" d="M 286.566406 162.832031 L 242.949219 130.171875 L 239.335938 87.878906 C 238.917969 83.035156 234.617188 79.410156 229.769531 79.824219 C 224.925781 80.238281 221.296875 84.539062 221.710938 89.386719 L 224.007812 116.261719 L 184.582031 85.902344 C 181.234375 83.085938 175.949219 83.535156 173.128906 86.882812 L 85.679688 180.003906 C 82.417969 183.390625 82.46875 189.152344 85.851562 192.414062 C 89.238281 195.675781 95.003906 195.625 98.265625 192.242188 L 104.746094 185.03125 L 105.628906 184.957031 L 114.589844 289.804688 C 115.003906 294.648438 119.308594 298.277344 124.15625 297.863281 L 268.652344 285.511719 C 273.5 285.097656 277.125 280.792969 276.710938 275.945312 L 267.746094 171.097656 L 268.628906 171.023438 L 276.242188 177.027344 C 278.117188 178.199219 279.957031 178.929688 282.15625 178.742188 C 284.359375 178.550781 286.929688 177.445312 288.503906 175.09375 C 291.285156 171.304688 290.796875 165.578125 286.566406 162.832031 Z M 286.566406 162.832031 " fill-opacity="1" fill-rule="nonzero"/></g></g></g><g clip-path="url(#bbd5660e6d)"><g clip-path="url(#95225eddee)"><g clip-path="url(#47b30f4028)"><path fill="#fdd532" d="M 267.601562 167.714844 L 232.773438 141.632812 L 229.886719 107.863281 C 229.554688 103.992188 226.117188 101.097656 222.246094 101.425781 C 218.378906 101.757812 215.484375 105.195312 215.8125 109.066406 L 217.648438 130.523438 L 186.164062 106.285156 C 183.492188 104.03125 179.269531 104.394531 177.015625 107.066406 L 107.1875 181.425781 C 104.582031 184.128906 104.621094 188.730469 107.324219 191.335938 C 110.027344 193.941406 114.632812 193.902344 117.234375 191.199219 L 122.414062 185.441406 L 123.117188 185.378906 L 130.273438 269.105469 C 130.605469 272.976562 134.039062 275.871094 137.910156 275.539062 L 253.296875 265.675781 C 257.167969 265.34375 260.0625 261.910156 259.730469 258.039062 L 252.574219 174.3125 L 253.277344 174.253906 L 259.359375 179.050781 C 260.855469 179.984375 262.320312 180.566406 264.082031 180.417969 C 265.839844 180.265625 267.890625 179.382812 269.148438 177.503906 C 271.371094 174.480469 270.976562 169.90625 267.601562 167.714844 Z M 267.601562 167.714844 " fill-opacity="1" fill-rule="nonzero"/></g></g></g><g clip-path="url(#d889d93224)"><g clip-path="url(#0cf442933b)"><g clip-path="url(#0061dffe3e)"><path fill="#242424" d="M 191.714844 237.152344 C 190.730469 237.238281 189.746094 237.277344 188.753906 237.277344 C 187.765625 237.273438 186.78125 237.230469 185.796875 237.140625 C 184.808594 237.054688 183.832031 236.921875 182.859375 236.75 C 181.882812 236.578125 180.921875 236.363281 179.964844 236.105469 C 179.011719 235.847656 178.070312 235.550781 177.140625 235.210938 C 176.210938 234.871094 175.300781 234.492188 174.402344 234.074219 C 173.507812 233.65625 172.632812 233.199219 171.773438 232.707031 C 170.917969 232.210938 170.085938 231.679688 169.277344 231.113281 C 168.464844 230.546875 167.679688 229.945312 166.921875 229.3125 C 166.164062 228.675781 165.4375 228.007812 164.738281 227.3125 C 164.039062 226.613281 163.371094 225.886719 162.734375 225.128906 C 162.097656 224.371094 161.492188 223.589844 160.925781 222.78125 C 160.355469 221.972656 159.824219 221.140625 159.328125 220.285156 C 158.832031 219.429688 158.375 218.554688 157.953125 217.660156 C 157.535156 216.761719 157.152344 215.851562 156.8125 214.921875 C 156.472656 213.996094 156.171875 213.054688 155.914062 212.101562 C 155.785156 211.625 155.75 211.144531 155.808594 210.65625 C 155.871094 210.167969 156.023438 209.710938 156.265625 209.28125 C 156.507812 208.855469 156.824219 208.492188 157.210938 208.1875 C 157.601562 207.886719 158.03125 207.667969 158.507812 207.539062 C 158.980469 207.410156 159.460938 207.375 159.949219 207.433594 C 160.4375 207.496094 160.894531 207.648438 161.324219 207.890625 C 161.75 208.132812 162.117188 208.449219 162.417969 208.835938 C 162.71875 209.226562 162.9375 209.65625 163.066406 210.132812 C 163.488281 211.621094 164.03125 213.066406 164.699219 214.460938 C 165.367188 215.859375 166.148438 217.1875 167.046875 218.449219 C 167.941406 219.710938 168.9375 220.886719 170.039062 221.980469 C 171.136719 223.070312 172.320312 224.058594 173.585938 224.949219 C 174.855469 225.835938 176.191406 226.609375 177.589844 227.265625 C 178.992188 227.925781 180.441406 228.460938 181.933594 228.871094 C 183.425781 229.28125 184.941406 229.558594 186.484375 229.710938 C 188.023438 229.859375 189.566406 229.875 191.109375 229.761719 C 191.21875 229.75 191.324219 229.742188 191.429688 229.734375 C 192.957031 229.578125 194.460938 229.289062 195.9375 228.875 C 197.417969 228.460938 198.847656 227.921875 200.234375 227.261719 C 201.621094 226.597656 202.941406 225.824219 204.195312 224.9375 C 205.445312 224.046875 206.617188 223.058594 207.699219 221.972656 C 208.78125 220.882812 209.765625 219.710938 210.644531 218.453125 C 211.527344 217.195312 212.296875 215.871094 212.949219 214.480469 C 213.601562 213.089844 214.132812 211.65625 214.542969 210.175781 C 214.949219 208.695312 215.226562 207.191406 215.375 205.660156 C 215.425781 205.171875 215.5625 204.710938 215.796875 204.273438 C 216.027344 203.839844 216.332031 203.46875 216.714844 203.15625 C 217.09375 202.84375 217.519531 202.617188 217.988281 202.472656 C 218.460938 202.328125 218.941406 202.28125 219.429688 202.328125 C 219.921875 202.378906 220.382812 202.519531 220.816406 202.75 C 221.25 202.980469 221.621094 203.289062 221.933594 203.667969 C 222.246094 204.046875 222.476562 204.472656 222.617188 204.945312 C 222.761719 205.417969 222.808594 205.894531 222.757812 206.386719 C 222.664062 207.359375 222.527344 208.328125 222.347656 209.292969 C 222.167969 210.253906 221.949219 211.207031 221.6875 212.152344 C 221.425781 213.09375 221.125 214.027344 220.785156 214.945312 C 220.445312 215.863281 220.066406 216.761719 219.648438 217.648438 C 219.230469 218.535156 218.777344 219.398438 218.285156 220.246094 C 217.792969 221.09375 217.265625 221.917969 216.703125 222.71875 C 216.140625 223.519531 215.542969 224.296875 214.914062 225.046875 C 214.285156 225.796875 213.625 226.515625 212.933594 227.210938 C 212.242188 227.90625 211.523438 228.566406 210.777344 229.199219 C 210.027344 229.832031 209.253906 230.429688 208.457031 230.996094 C 207.65625 231.5625 206.832031 232.089844 205.988281 232.585938 C 205.144531 233.082031 204.28125 233.539062 203.394531 233.960938 C 202.511719 234.378906 201.613281 234.761719 200.695312 235.105469 C 199.777344 235.449219 198.847656 235.753906 197.90625 236.019531 C 196.960938 236.28125 196.011719 236.503906 195.046875 236.6875 C 194.085938 236.871094 193.117188 237.011719 192.144531 237.109375 Z M 191.714844 237.152344 " fill-opacity="1" fill-rule="nonzero"/></g></g></g></svg>